<mxfile host="app.diagrams.net" modified="2024-01-08T17:59:52.662Z" agent="Mozilla/5.0 (Windows NT 10.0; Win64; x64; rv:121.0) Gecko/20100101 Firefox/121.0" etag="tGooAs1s3MZEUdsmcix6" version="22.1.17" type="device">
  <diagram name="Page-1" id="KN_B6KQl8ISWaJ1Pa7RI">
    <mxGraphModel dx="1050" dy="558" grid="1" gridSize="10" guides="1" tooltips="1" connect="1" arrows="1" fold="1" page="1" pageScale="1" pageWidth="850" pageHeight="1100" math="0" shadow="0">
      <root>
        <mxCell id="0" />
        <mxCell id="1" parent="0" />
        <mxCell id="U0GB1YPKNMgeIDX1NHpv-10" value="" style="edgeStyle=orthogonalEdgeStyle;rounded=0;orthogonalLoop=1;jettySize=auto;html=1;fillColor=#fff2cc;strokeColor=#d6b656;shape=flexArrow;" edge="1" parent="1" source="U0GB1YPKNMgeIDX1NHpv-1" target="U0GB1YPKNMgeIDX1NHpv-2">
          <mxGeometry relative="1" as="geometry" />
        </mxCell>
        <mxCell id="U0GB1YPKNMgeIDX1NHpv-26" style="edgeStyle=orthogonalEdgeStyle;rounded=0;orthogonalLoop=1;jettySize=auto;html=1;entryX=0;entryY=0.5;entryDx=0;entryDy=0;shape=flexArrow;fillColor=#f8cecc;strokeColor=#b85450;" edge="1" parent="1" source="U0GB1YPKNMgeIDX1NHpv-1" target="U0GB1YPKNMgeIDX1NHpv-4">
          <mxGeometry relative="1" as="geometry" />
        </mxCell>
        <mxCell id="U0GB1YPKNMgeIDX1NHpv-1" value="" style="image;aspect=fixed;perimeter=ellipsePerimeter;html=1;align=center;shadow=0;dashed=0;spacingTop=3;image=img/lib/active_directory/internet_cloud.svg;" vertex="1" parent="1">
          <mxGeometry x="395.88" y="50" width="81.75" height="51.5" as="geometry" />
        </mxCell>
        <mxCell id="U0GB1YPKNMgeIDX1NHpv-21" value="" style="edgeStyle=orthogonalEdgeStyle;rounded=0;orthogonalLoop=1;jettySize=auto;html=1;entryX=0.612;entryY=0.971;entryDx=0;entryDy=0;entryPerimeter=0;shape=flexArrow;fillColor=#fff2cc;strokeColor=#d6b656;" edge="1" parent="1" source="U0GB1YPKNMgeIDX1NHpv-2" target="U0GB1YPKNMgeIDX1NHpv-3">
          <mxGeometry relative="1" as="geometry">
            <mxPoint x="315.0050000000001" y="235.79999999999995" as="targetPoint" />
          </mxGeometry>
        </mxCell>
        <mxCell id="U0GB1YPKNMgeIDX1NHpv-2" value="" style="image;aspect=fixed;perimeter=ellipsePerimeter;html=1;align=center;shadow=0;dashed=0;spacingTop=3;image=img/lib/active_directory/internet_cloud.svg;" vertex="1" parent="1">
          <mxGeometry x="395.88" y="210" width="81.75" height="51.5" as="geometry" />
        </mxCell>
        <mxCell id="U0GB1YPKNMgeIDX1NHpv-15" value="" style="edgeStyle=orthogonalEdgeStyle;rounded=0;orthogonalLoop=1;jettySize=auto;html=1;shape=flexArrow;fillColor=#f8cecc;strokeColor=#b85450;" edge="1" parent="1" source="U0GB1YPKNMgeIDX1NHpv-3" target="U0GB1YPKNMgeIDX1NHpv-1">
          <mxGeometry relative="1" as="geometry" />
        </mxCell>
        <mxCell id="U0GB1YPKNMgeIDX1NHpv-3" value="" style="image;aspect=fixed;perimeter=ellipsePerimeter;html=1;align=center;shadow=0;dashed=0;spacingTop=3;image=img/lib/active_directory/internet_cloud.svg;" vertex="1" parent="1">
          <mxGeometry x="200" y="90" width="81.75" height="51.5" as="geometry" />
        </mxCell>
        <mxCell id="U0GB1YPKNMgeIDX1NHpv-27" style="edgeStyle=orthogonalEdgeStyle;rounded=0;orthogonalLoop=1;jettySize=auto;html=1;entryX=1;entryY=0;entryDx=0;entryDy=0;shape=flexArrow;fillColor=#fff2cc;strokeColor=#d6b656;" edge="1" parent="1" source="U0GB1YPKNMgeIDX1NHpv-4" target="U0GB1YPKNMgeIDX1NHpv-2">
          <mxGeometry relative="1" as="geometry" />
        </mxCell>
        <mxCell id="U0GB1YPKNMgeIDX1NHpv-4" value="" style="image;aspect=fixed;perimeter=ellipsePerimeter;html=1;align=center;shadow=0;dashed=0;spacingTop=3;image=img/lib/active_directory/internet_cloud.svg;" vertex="1" parent="1">
          <mxGeometry x="640" y="80" width="81.75" height="51.5" as="geometry" />
        </mxCell>
        <mxCell id="U0GB1YPKNMgeIDX1NHpv-14" value="" style="edgeStyle=orthogonalEdgeStyle;rounded=0;orthogonalLoop=1;jettySize=auto;html=1;shape=flexArrow;fillColor=#60a917;strokeColor=#2D7600;" edge="1" parent="1" source="U0GB1YPKNMgeIDX1NHpv-5" target="U0GB1YPKNMgeIDX1NHpv-2">
          <mxGeometry relative="1" as="geometry" />
        </mxCell>
        <mxCell id="U0GB1YPKNMgeIDX1NHpv-5" value="" style="image;html=1;image=img/lib/clip_art/networking/Router_Icon_128x128.png" vertex="1" parent="1">
          <mxGeometry x="590" y="220" width="60" height="60" as="geometry" />
        </mxCell>
        <mxCell id="U0GB1YPKNMgeIDX1NHpv-6" value="" style="image;html=1;image=img/lib/clip_art/networking/Router_Icon_128x128.png" vertex="1" parent="1">
          <mxGeometry x="407.5" y="340" width="65" height="70" as="geometry" />
        </mxCell>
        <mxCell id="U0GB1YPKNMgeIDX1NHpv-13" value="" style="edgeStyle=orthogonalEdgeStyle;rounded=0;orthogonalLoop=1;jettySize=auto;html=1;shape=flexArrow;fillColor=#008a00;strokeColor=#005700;" edge="1" parent="1" source="U0GB1YPKNMgeIDX1NHpv-7" target="U0GB1YPKNMgeIDX1NHpv-5">
          <mxGeometry relative="1" as="geometry" />
        </mxCell>
        <mxCell id="U0GB1YPKNMgeIDX1NHpv-7" value="" style="fontColor=#0066CC;verticalAlign=top;verticalLabelPosition=bottom;labelPosition=center;align=center;html=1;outlineConnect=0;fillColor=#CCCCCC;strokeColor=#6881B3;gradientColor=none;gradientDirection=north;strokeWidth=2;shape=mxgraph.networks.pc;" vertex="1" parent="1">
          <mxGeometry x="730" y="230" width="100" height="70" as="geometry" />
        </mxCell>
        <mxCell id="U0GB1YPKNMgeIDX1NHpv-9" value="" style="fontColor=#0066CC;verticalAlign=top;verticalLabelPosition=bottom;labelPosition=center;align=center;html=1;outlineConnect=0;fillColor=#CCCCCC;strokeColor=#6881B3;gradientColor=none;gradientDirection=north;strokeWidth=2;shape=mxgraph.networks.pc;" vertex="1" parent="1">
          <mxGeometry x="386.76" y="490" width="100" height="70" as="geometry" />
        </mxCell>
        <mxCell id="U0GB1YPKNMgeIDX1NHpv-29" value="WAZUH" style="text;html=1;align=center;verticalAlign=middle;resizable=0;points=[];autosize=1;strokeColor=none;fillColor=none;" vertex="1" parent="1">
          <mxGeometry x="210" y="58" width="60" height="30" as="geometry" />
        </mxCell>
        <mxCell id="U0GB1YPKNMgeIDX1NHpv-32" value="SHUFFLE" style="text;html=1;align=center;verticalAlign=middle;resizable=0;points=[];autosize=1;strokeColor=none;fillColor=none;" vertex="1" parent="1">
          <mxGeometry x="400" y="8" width="80" height="30" as="geometry" />
        </mxCell>
        <mxCell id="U0GB1YPKNMgeIDX1NHpv-33" value="HIVE" style="text;html=1;align=center;verticalAlign=middle;resizable=0;points=[];autosize=1;strokeColor=none;fillColor=none;" vertex="1" parent="1">
          <mxGeometry x="655.88" y="50" width="50" height="30" as="geometry" />
        </mxCell>
        <mxCell id="U0GB1YPKNMgeIDX1NHpv-35" value="SOC ANALYST" style="text;html=1;align=center;verticalAlign=middle;resizable=0;points=[];autosize=1;strokeColor=none;fillColor=none;" vertex="1" parent="1">
          <mxGeometry x="740" y="318" width="100" height="30" as="geometry" />
        </mxCell>
        <mxCell id="U0GB1YPKNMgeIDX1NHpv-36" value="ROUTER" style="text;html=1;align=center;verticalAlign=middle;resizable=0;points=[];autosize=1;strokeColor=none;fillColor=none;" vertex="1" parent="1">
          <mxGeometry x="585" y="278" width="70" height="30" as="geometry" />
        </mxCell>
        <mxCell id="U0GB1YPKNMgeIDX1NHpv-39" value="&lt;div&gt;WINDOWS 10&lt;/div&gt;&lt;div&gt;USER&lt;br&gt;&lt;/div&gt;" style="text;html=1;align=center;verticalAlign=middle;resizable=0;points=[];autosize=1;strokeColor=none;fillColor=none;" vertex="1" parent="1">
          <mxGeometry x="390" y="563" width="100" height="40" as="geometry" />
        </mxCell>
        <mxCell id="U0GB1YPKNMgeIDX1NHpv-41" value="" style="edgeStyle=orthogonalEdgeStyle;rounded=0;orthogonalLoop=1;jettySize=auto;html=1;shape=flexArrow;fillColor=#dae8fc;strokeColor=#6c8ebf;" edge="1" parent="1" source="U0GB1YPKNMgeIDX1NHpv-40" target="U0GB1YPKNMgeIDX1NHpv-6">
          <mxGeometry relative="1" as="geometry" />
        </mxCell>
        <mxCell id="U0GB1YPKNMgeIDX1NHpv-40" value="INTERNET" style="text;html=1;align=center;verticalAlign=middle;resizable=0;points=[];autosize=1;strokeColor=none;fillColor=none;" vertex="1" parent="1">
          <mxGeometry x="400" y="268" width="80" height="30" as="geometry" />
        </mxCell>
        <mxCell id="U0GB1YPKNMgeIDX1NHpv-43" value="" style="edgeStyle=orthogonalEdgeStyle;rounded=0;orthogonalLoop=1;jettySize=auto;html=1;shape=flexArrow;fillColor=#008a00;strokeColor=#005700;" edge="1" parent="1" source="U0GB1YPKNMgeIDX1NHpv-42" target="U0GB1YPKNMgeIDX1NHpv-9">
          <mxGeometry relative="1" as="geometry" />
        </mxCell>
        <mxCell id="U0GB1YPKNMgeIDX1NHpv-42" value="ROUTER" style="text;html=1;align=center;verticalAlign=middle;resizable=0;points=[];autosize=1;strokeColor=none;fillColor=none;" vertex="1" parent="1">
          <mxGeometry x="401.76" y="400" width="70" height="30" as="geometry" />
        </mxCell>
        <mxCell id="U0GB1YPKNMgeIDX1NHpv-45" value="&lt;div&gt;LABS ON CLOUD&lt;/div&gt;&lt;div&gt;&lt;br&gt;&lt;/div&gt;" style="text;html=1;align=center;verticalAlign=middle;resizable=0;points=[];autosize=1;strokeColor=none;fillColor=none;" vertex="1" parent="1">
          <mxGeometry x="380" y="633" width="120" height="40" as="geometry" />
        </mxCell>
      </root>
    </mxGraphModel>
  </diagram>
</mxfile>
